<svg xmlns="http://www.w3.org/2000/svg" version="1.1" xmlns:xlink="http://www.w3.org/1999/xlink" width="512" height="512" x="0" y="0" viewBox="0 0 24 24" style="enable-background:new 0 0 512 512" xml:space="preserve"><g><path fill="#7e9bff" fill-rule="evenodd" d="M22 16a6 6 0 0 1-6 6H8a6 6 0 0 1-6-6V8a6 6 0 0 1 6-6h8a6 6 0 0 1 6 6zm-4.25-5a.75.75 0 0 1-.75.75h-3.5c-.69 0-1.25-.56-1.25-1.25V7a.75.75 0 1 1 1.5 0v2.19l2.72-2.72a.75.75 0 1 1 1.06 1.06l-2.72 2.72H17a.75.75 0 0 1 .75.75zm-11.5 2a.75.75 0 0 1 .75-.75h3.5c.69 0 1.25.56 1.25 1.25V17a.75.75 0 0 1-1.5 0v-2.19l-2.72 2.72a.75.75 0 1 1-1.06-1.06l2.72-2.72H7a.75.75 0 0 1-.75-.75z" clip-rule="evenodd" opacity="1" data-original="#000000"></path></g></svg>